<?xml version="1.0" encoding="UTF-8"?>
<svg id="Layer_2" data-name="Layer 2" xmlns="http://www.w3.org/2000/svg" viewBox="0 0 197.24 197.24">
  <defs>
    <style>
      .cls-1 {
        fill: #ffffff;
      }
    </style>
  </defs>
  <g id="Layer_1-2" data-name="Layer 1">
    <path class="cls-1" d="M108.94,7.28l8.65,24.31c2.17,6.11,9.16,9.01,15.02,6.22l23.31-11.08c9.31-4.42,19.02,5.29,14.59,14.59l-11.08,23.31c-2.79,5.86,.11,12.85,6.22,15.02l24.31,8.65c9.71,3.45,9.71,17.18,0,20.64l-24.31,8.65c-6.11,2.17-9.01,9.16-6.22,15.02l11.08,23.31c4.42,9.31-5.29,19.02-14.59,14.59l-23.31-11.08c-5.86-2.79-12.85,.11-15.02,6.22l-8.65,24.31c-3.45,9.71-17.18,9.71-20.64,0l-8.65-24.31c-2.17-6.11-9.16-9.01-15.02-6.22l-23.31,11.08c-9.31,4.42-19.02-5.29-14.59-14.59l11.08-23.31c2.79-5.86-.11-12.85-6.22-15.02l-24.31-8.65c-9.71-3.45-9.71-17.18,0-20.64l24.31-8.65c6.11-2.17,9.01-9.16,6.22-15.02l-11.08-23.31c-4.42-9.31,5.29-19.02,14.59-14.59l23.31,11.08c5.86,2.79,12.85-.11,15.02-6.22l8.65-24.31c3.45-9.71,17.18-9.71,20.64,0Z"/>
  </g>
</svg>